<svg width="35" height="35" viewBox="0 0 35 35" fill="none" xmlns="http://www.w3.org/2000/svg">
<ellipse cx="16.1075" cy="15.5001" rx="15.1592" ry="15.0294" fill="url(#paint0_linear_175_1694)" fill-opacity="0.15"/>
<path d="M17.1853 25.5905L13.2406 21.5792C13.0282 21.3628 12.7399 21.2411 12.4391 21.2411C12.1384 21.2411 11.8501 21.3628 11.6377 21.5792C11.1943 22.03 11.1943 22.7583 11.6377 23.2092L16.3896 28.0412C16.8329 28.492 17.5491 28.492 17.9925 28.0412L30.0199 15.8108C30.4633 15.36 30.4633 14.6317 30.0199 14.1809C29.8075 13.9644 29.5192 13.8428 29.2185 13.8428C28.9178 13.8428 28.6294 13.9644 28.417 14.1809L17.1853 25.5905Z" fill="url(#paint1_linear_175_1694)" stroke="url(#paint2_linear_175_1694)" stroke-width="1.23856"/>
<defs>
<linearGradient id="paint0_linear_175_1694" x1="26.5674" y1="16.7525" x2="5.34442" y2="16.7525" gradientUnits="userSpaceOnUse">
<stop stop-color="#2FEA9B"/>
<stop offset="1" stop-color="#7FDD53"/>
</linearGradient>
<linearGradient id="paint1_linear_175_1694" x1="27.4001" y1="21.7167" x2="14.067" y2="21.7167" gradientUnits="userSpaceOnUse">
<stop stop-color="#2FEA9B"/>
<stop offset="1" stop-color="#7FDD53"/>
</linearGradient>
<linearGradient id="paint2_linear_175_1694" x1="27.4001" y1="21.7167" x2="14.067" y2="21.7167" gradientUnits="userSpaceOnUse">
<stop stop-color="#2FEA9B"/>
<stop offset="1" stop-color="#7FDD53"/>
</linearGradient>
</defs>
</svg>
