<svg width="32" height="32" viewBox="0 0 32 32" fill="none" xmlns="http://www.w3.org/2000/svg">
<g clip-path="url(#clip0_325_2114)">
<path d="M16.0785 28.5429H13.1885C12.7344 28.5429 12.3628 28.1713 12.3628 27.7172V19.4601C12.3628 19.006 12.7344 18.6344 13.1885 18.6344H16.0785C16.5326 18.6344 16.9042 19.006 16.9042 19.4601V27.7172C16.9042 28.1713 16.5326 28.5429 16.0785 28.5429ZM22.0648 13.6802H19.1749C18.7207 13.6802 18.3492 14.0517 18.3492 14.5059V27.7172C18.3492 28.1713 18.7207 28.5429 19.1749 28.5429H22.0648C22.519 28.5429 22.8905 28.1713 22.8905 27.7172V14.5059C22.8905 14.0517 22.519 13.6802 22.0648 13.6802ZM28.0512 20.2858H25.1612C24.7071 20.2858 24.3355 20.6574 24.3355 21.1115V27.7172C24.3355 28.1713 24.7071 28.5429 25.1612 28.5429H28.0512C28.5054 28.5429 28.8769 28.1713 28.8769 27.7172V21.1115C28.8769 20.6574 28.5054 20.2858 28.0512 20.2858Z" fill="url(#paint0_linear_325_2114)"/>
</g>
<g opacity="0.2">
<ellipse cx="15.936" cy="15.2702" rx="15.1538" ry="14.9347" fill="url(#paint1_linear_325_2114)"/>
</g>
<defs>
<linearGradient id="paint0_linear_325_2114" x1="20.6199" y1="13.6802" x2="20.6199" y2="28.5429" gradientUnits="userSpaceOnUse">
<stop stop-color="#967CFD"/>
<stop offset="1" stop-color="#3177FF"/>
</linearGradient>
<linearGradient id="paint1_linear_325_2114" x1="0.257874" y1="22.6969" x2="29.9886" y2="22.6969" gradientUnits="userSpaceOnUse">
<stop stop-color="#967CFD"/>
<stop offset="1" stop-color="#3177FF"/>
</linearGradient>
<clipPath id="clip0_325_2114">
<rect width="19.817" height="19.817" fill="white" transform="translate(10.7119 11.2026)"/>
</clipPath>
</defs>
</svg>
