<svg width="36" height="35" viewBox="0 0 36 35" fill="none" xmlns="http://www.w3.org/2000/svg">
<path d="M4.39661 25.0172C3.55501 25.4742 2.49351 25.1649 2.12286 24.2819C1.18602 22.05 0.724323 19.6404 0.775288 17.2076C0.838394 14.1953 1.68533 11.2514 3.23263 8.66605C4.77993 6.08071 6.97419 3.94316 9.59915 2.46408C12.2241 0.984991 15.1892 0.215416 18.2021 0.231195C21.2151 0.246974 24.1719 1.04756 26.7812 2.55406C29.3906 4.06056 31.5623 6.22097 33.0825 8.82237C34.6026 11.4238 35.4187 14.3764 35.4502 17.3892C35.4757 19.8224 34.9888 22.2271 34.0286 24.449C33.6487 25.3281 32.5841 25.6262 31.7473 25.1605V25.1605C30.9105 24.6947 30.6209 23.6416 30.9787 22.7533C31.6583 21.0659 32.0016 19.2558 31.9824 17.4255C31.9572 15.0153 31.3043 12.6532 30.0882 10.5721C28.8721 8.49093 27.1347 6.7626 25.0473 5.55741C22.9598 4.35221 20.5943 3.71174 18.184 3.69911C15.7736 3.68649 13.4016 4.30215 11.3016 5.48542C9.20161 6.66869 7.44621 8.37872 6.20837 10.447C4.97053 12.5153 4.29298 14.8704 4.24249 17.2803C4.20416 19.1103 4.52843 20.9239 5.19034 22.6183C5.5388 23.5103 5.23821 24.5603 4.39661 25.0172V25.0172Z" fill="#E4E4E4"/>
<path d="M4.39661 25.0172C3.55501 25.4742 2.49348 25.1649 2.12281 24.2819C0.581167 20.6095 0.344343 16.4986 1.48555 12.646C2.7917 8.23655 5.79598 4.52658 9.8375 2.33223C13.879 0.137877 18.6267 -0.361115 23.0361 0.945027C26.8888 2.08624 30.2074 4.52381 32.4478 7.81691C32.9864 8.6087 32.6676 9.6674 31.826 10.1244V10.1244C30.9844 10.5813 29.9401 10.2615 29.3818 9.48341C27.5948 6.99295 25.0214 5.15 22.0512 4.27018C18.5236 3.22527 14.7255 3.62446 11.4923 5.37994C8.25905 7.13542 5.85562 10.1034 4.81071 13.6309C3.93089 16.6011 4.07489 19.7632 5.19029 22.6183C5.53876 23.5103 5.23821 24.5603 4.39661 25.0172V25.0172Z" fill="url(#paint0_linear_175_1678)"/>
<path d="M9.99139 10.4711L9.99123 10.4712L6.33746 13.7894C5.98135 14.1123 5.98135 14.6465 6.33746 14.9694C6.67822 15.2783 7.21933 15.2783 7.56009 14.9694L7.56028 14.9692L10.5998 12.2082L12.4213 13.8596C12.762 14.1685 13.3031 14.1685 13.6439 13.8596L16.866 10.9435L17.5611 11.5737C17.7416 11.7374 17.9814 11.7547 18.1671 11.6856C18.3533 11.6164 18.5317 11.4397 18.5317 11.1798V8.81011C18.5413 8.4742 18.2518 8.25861 17.9623 8.25861H15.3498C15.1084 8.25861 14.9094 8.39347 14.8205 8.58674C14.7301 8.7831 14.761 9.02948 14.9486 9.19957L15.6041 9.79393L13.0356 12.1226L11.214 10.4711C10.8733 10.1621 10.3322 10.1621 9.99139 10.4711Z" fill="url(#paint1_linear_175_1678)" stroke="url(#paint2_linear_175_1678)" stroke-width="0.54187"/>
<defs>
<linearGradient id="paint0_linear_175_1678" x1="38.0521" y1="28.5279" x2="-2.69648" y2="28.5279" gradientUnits="userSpaceOnUse">
<stop stop-color="#6BD5BF"/>
<stop offset="0.159669" stop-color="#32D172"/>
<stop offset="0.268196" stop-color="#8ACD41"/>
<stop offset="0.658066" stop-color="#F3AF3D"/>
<stop offset="0.804268" stop-color="#FF7A00"/>
<stop offset="1" stop-color="#FF2E00"/>
</linearGradient>
<linearGradient id="paint1_linear_175_1678" x1="16.4134" y1="11.9965" x2="8.06966" y2="11.9965" gradientUnits="userSpaceOnUse">
<stop stop-color="#52D060"/>
<stop offset="0.395833" stop-color="#EDB13E"/>
<stop offset="1" stop-color="#FF7501"/>
</linearGradient>
<linearGradient id="paint2_linear_175_1678" x1="16.4134" y1="11.9965" x2="8.06966" y2="11.9965" gradientUnits="userSpaceOnUse">
<stop stop-color="#52D060"/>
<stop offset="0.395833" stop-color="#EDB13E"/>
<stop offset="1" stop-color="#FF7501"/>
</linearGradient>
</defs>
</svg>
