<svg width="22" height="22" viewBox="0 0 22 22" fill="none" xmlns="http://www.w3.org/2000/svg">
<path d="M11 0C11.9856 0 12.9404 0.1298 13.849 0.3729L11.5104 2.7104C11.333 2.88853 11.1765 3.08634 11.044 3.3H11C9.47708 3.3 7.98837 3.7516 6.72211 4.59768C5.45585 5.44377 4.46892 6.64635 3.88613 8.05334C3.30333 9.46033 3.15085 11.0085 3.44795 12.5022C3.74506 13.9958 4.47841 15.3679 5.55528 16.4447C6.63214 17.5216 8.00415 18.2549 9.4978 18.552C10.9915 18.8492 12.5397 18.6967 13.9467 18.1139C15.3537 17.5311 16.5562 16.5441 17.4023 15.2779C18.2484 14.0116 18.7 12.5229 18.7 11V10.956C18.9112 10.824 19.1092 10.6689 19.2885 10.4885L21.6271 8.151C21.8702 9.0596 22 10.0144 22 11C22 17.0753 17.0753 22 11 22C4.9247 22 0 17.0753 0 11C0 4.9247 4.9247 0 11 0ZM10.5446 5.5187C10.5446 6.4548 10.4984 7.4041 10.549 8.3391L9.955 8.9331C9.75067 9.13743 9.58859 9.38001 9.478 9.64698C9.36742 9.91395 9.3105 10.2001 9.3105 10.489C9.3105 10.778 9.36742 11.0642 9.478 11.3311C9.58859 11.5981 9.75067 11.8407 9.955 12.045C10.1593 12.2493 10.4019 12.4114 10.6689 12.522C10.9358 12.6326 11.222 12.6895 11.511 12.6895C11.7999 12.6895 12.0861 12.6326 12.353 12.522C12.62 12.4114 12.8626 12.2493 13.0669 12.045L13.6609 11.451C14.5959 11.5016 15.5441 11.4554 16.4813 11.4554C16.3944 12.5008 16.0104 13.4995 15.3745 14.3338C14.7386 15.1681 13.8774 15.8031 12.8925 16.164C11.9076 16.5249 10.84 16.5966 9.81561 16.3707C8.79124 16.1448 7.85286 15.6306 7.11112 14.8889C6.36937 14.1471 5.85522 13.2088 5.62929 12.1844C5.40336 11.16 5.47507 10.0924 5.83598 9.10749C6.19689 8.12255 6.83193 7.26136 7.66622 6.62549C8.5005 5.98962 9.49923 5.60559 10.5446 5.5187ZM18.1544 0.1397C18.3552 0.222947 18.5268 0.363811 18.6476 0.54451C18.7684 0.72521 18.8329 0.937645 18.8331 1.155V3.168H20.845C21.0625 3.16805 21.2752 3.23259 21.456 3.35346C21.6369 3.47433 21.7778 3.64611 21.861 3.84708C21.9443 4.04805 21.9661 4.26919 21.9236 4.48253C21.8812 4.69588 21.7765 4.89186 21.6227 5.0457L17.732 8.932C17.5258 9.1383 17.246 9.25424 16.9543 9.2543H14.3L12.2881 11.2662C12.0817 11.4725 11.8018 11.5883 11.51 11.5882C11.2182 11.5881 10.9384 11.4721 10.7322 11.2656C10.5259 11.0592 10.4101 10.7794 10.4102 10.4876C10.4103 10.1958 10.5263 9.91596 10.7327 9.7097L12.7446 7.7V5.0446C12.7445 4.89997 12.7729 4.75674 12.8282 4.62311C12.8835 4.48947 12.9646 4.36805 13.0669 4.2658L16.9554 0.3773C17.1092 0.223374 17.3053 0.118534 17.5187 0.0760445C17.7321 0.0335548 17.9533 0.0553246 18.1544 0.1386V0.1397Z" fill="#BAC5C8"/>
</svg>
